# xmcd CD database file
#
# Track frame offsets:
#	150
#	7774
#	22664
#	43109
#	44493
#	61120
#	76841
#	95032
#	112768
#	129445
#	155556
#	160205
#	172954
#	186247
#	207425
#	215182
#	224345
#	238784
#	257846
#	272707
#
# Disc length: 3812 seconds
#
# Revision: 0
# Processed by: cddbd v1.5.2PL0 Copyright (c) Steve Scherf et al.
# Submitted via: CdAid (MTCDDB.DLL V2003.12.21)
#
DISCID=120ee214
DTITLE=Wolthär, Walter Liederschmitt, Uwe Heil, Carsten Söns, Christian Meissn
DTITLE=er - Mir Schwaeze Platt!
DYEAR=2007
DGENRE=Folklore
TTITLE0=Son ar chistr
TTITLE1=Et Platt-Leed
TTITLE2=Austrasien
TTITLE3=Lothrénger Meedchi
TTITLE4=Les sabotd d'Hélène
TTITLE5=Et Schloofleed
TTITLE6=Bei mir bes de scheen
TTITLE7=Ich haon de Kir kréit
TTITLE8=Schwatz Kaatz
TTITLE9=Marion se promène
TTITLE10=Kouke mer mol
TTITLE11=Saarburjer Viezleed
TTITLE12=Wie Bloo Maathes freie ging
TTITLE13=Haedekuhrs-Knepp
TTITLE14=Danz danz Quiselchi
TTITLE15=Echternaacher Springprozession
TTITLE16=Spillmannslidd
TTITLE17=Zu Arel op der Knippchen
TTITLE18=Et Goddelfraechesleed
TTITLE19=Konzer Deelches Leed
EXTD=ID3G: 115 YEAR: 2007
EXTT0=
EXTT1=
EXTT2=
EXTT3=
EXTT4=
EXTT5=
EXTT6=
EXTT7=
EXTT8=
EXTT9=
EXTT10=
EXTT11=
EXTT12=
EXTT13=
EXTT14=
EXTT15=
EXTT16=
EXTT17=
EXTT18=
EXTT19=
PLAYORDER=
